<svg width="64" height="64" viewBox="0 0 64 64" fill="none" xmlns="http://www.w3.org/2000/svg">
<rect width="64" height="64" rx="32" fill="#FFB016" fill-opacity="0.1"/>
<g clip-path="url(#clip0_1_329)">
<path d="M27.291 40.824L22 42L23.176 36.709C22.4015 35.2604 21.9975 33.6426 22 32C22 26.477 26.477 22 32 22C37.523 22 42 26.477 42 32C42 37.523 37.523 42 32 42C30.3574 42.0025 28.7396 41.5985 27.291 40.824ZM27.581 38.711L28.234 39.061C29.3926 39.6801 30.6864 40.0027 32 40C33.5823 40 35.129 39.5308 36.4446 38.6518C37.7602 37.7727 38.7855 36.5233 39.391 35.0615C39.9965 33.5997 40.155 31.9911 39.8463 30.4393C39.5376 28.8874 38.7757 27.462 37.6569 26.3431C36.538 25.2243 35.1126 24.4624 33.5607 24.1537C32.0089 23.845 30.4004 24.0035 28.9385 24.609C27.4767 25.2145 26.2273 26.2398 25.3483 27.5554C24.4692 28.871 24 30.4177 24 32C24 33.334 24.325 34.618 24.94 35.766L25.289 36.419L24.634 39.366L27.581 38.711Z" fill="#FFB016"/>
</g>
<defs>
<clipPath id="clip0_1_329">
<rect width="24" height="24" fill="white" transform="translate(20 20)"/>
</clipPath>
</defs>
</svg>
