<svg width="64" height="64" viewBox="0 0 64 64" fill="none" xmlns="http://www.w3.org/2000/svg">
<rect width="64" height="64" rx="32" fill="#FF5367" fill-opacity="0.1"/>
<g clip-path="url(#clip0_1_311)">
<path d="M32 42C26.477 42 22 37.523 22 32C22 26.477 26.477 22 32 22C37.523 22 42 26.477 42 32C42 37.523 37.523 42 32 42ZM32 40C34.1217 40 36.1566 39.1571 37.6569 37.6569C39.1571 36.1566 40 34.1217 40 32C40 29.8783 39.1571 27.8434 37.6569 26.3431C36.1566 24.8429 34.1217 24 32 24C29.8783 24 27.8434 24.8429 26.3431 26.3431C24.8429 27.8434 24 29.8783 24 32C24 34.1217 24.8429 36.1566 26.3431 37.6569C27.8434 39.1571 29.8783 40 32 40ZM32 30.586L34.828 27.757L36.243 29.172L33.414 32L36.243 34.828L34.828 36.243L32 33.414L29.172 36.243L27.757 34.828L30.586 32L27.757 29.172L29.172 27.757L32 30.586Z" fill="#FF5368"/>
</g>
<defs>
<clipPath id="clip0_1_311">
<rect width="24" height="24" fill="white" transform="translate(20 20)"/>
</clipPath>
</defs>
</svg>
