<svg width="64" height="64" viewBox="0 0 64 64" fill="none" xmlns="http://www.w3.org/2000/svg">
<rect width="64" height="64" rx="32" fill="#724FFF" fill-opacity="0.08"/>
<g clip-path="url(#clip0_1_320)">
<path d="M27 25V22C27 21.7348 27.1054 21.4804 27.2929 21.2929C27.4804 21.1054 27.7348 21 28 21H36C36.2652 21 36.5196 21.1054 36.7071 21.2929C36.8946 21.4804 37 21.7348 37 22V25H41C41.2652 25 41.5196 25.1054 41.7071 25.2929C41.8946 25.4804 42 25.7348 42 26V40C42 40.2652 41.8946 40.5196 41.7071 40.7071C41.5196 40.8946 41.2652 41 41 41H23C22.7348 41 22.4804 40.8946 22.2929 40.7071C22.1054 40.5196 22 40.2652 22 40V26C22 25.7348 22.1054 25.4804 22.2929 25.2929C22.4804 25.1054 22.7348 25 23 25H27ZM24 36V39H40V36H24ZM24 34H40V27H24V34ZM29 23V25H35V23H29ZM31 31H33V33H31V31Z" fill="#724FFF"/>
</g>
<defs>
<clipPath id="clip0_1_320">
<rect width="24" height="24" fill="white" transform="translate(20 20)"/>
</clipPath>
</defs>
</svg>
