<svg width="22" height="22" viewBox="0 0 22 22" fill="none" xmlns="http://www.w3.org/2000/svg">
<path d="M7.68588 2.99988L10.2929 0.392884C10.4804 0.205413 10.7347 0.100098 10.9999 0.100098C11.265 0.100098 11.5194 0.205413 11.7069 0.392884L14.3139 2.99988H17.9999C18.2651 2.99988 18.5195 3.10524 18.707 3.29278C18.8945 3.48031 18.9999 3.73467 18.9999 3.99988V7.68588L21.6069 10.2929C21.7944 10.4804 21.8997 10.7347 21.8997 10.9999C21.8997 11.265 21.7944 11.5194 21.6069 11.7069L18.9999 14.3139V17.9999C18.9999 18.2651 18.8945 18.5195 18.707 18.707C18.5195 18.8945 18.2651 18.9999 17.9999 18.9999H14.3139L11.7069 21.6069C11.5194 21.7944 11.265 21.8997 10.9999 21.8997C10.7347 21.8997 10.4804 21.7944 10.2929 21.6069L7.68588 18.9999H3.99988C3.73467 18.9999 3.48031 18.8945 3.29278 18.707C3.10524 18.5195 2.99988 18.2651 2.99988 17.9999V14.3139L0.392884 11.7069C0.205413 11.5194 0.100098 11.265 0.100098 10.9999C0.100098 10.7347 0.205413 10.4804 0.392884 10.2929L2.99988 7.68588V3.99988C2.99988 3.73467 3.10524 3.48031 3.29278 3.29278C3.48031 3.10524 3.73467 2.99988 3.99988 2.99988H7.68588ZM4.99988 4.99988V8.51488L2.51488 10.9999L4.99988 13.4849V16.9999H8.51488L10.9999 19.4849L13.4849 16.9999H16.9999V13.4849L19.4849 10.9999L16.9999 8.51488V4.99988H13.4849L10.9999 2.51488L8.51488 4.99988H4.99988ZM10.9999 14.9999C9.93902 14.9999 8.9216 14.5785 8.17146 13.8283C7.42131 13.0782 6.99988 12.0608 6.99988 10.9999C6.99988 9.93902 7.42131 8.9216 8.17146 8.17146C8.9216 7.42131 9.93902 6.99988 10.9999 6.99988C12.0608 6.99988 13.0782 7.42131 13.8283 8.17146C14.5785 8.9216 14.9999 9.93902 14.9999 10.9999C14.9999 12.0608 14.5785 13.0782 13.8283 13.8283C13.0782 14.5785 12.0608 14.9999 10.9999 14.9999ZM10.9999 12.9999C11.5303 12.9999 12.039 12.7892 12.4141 12.4141C12.7892 12.039 12.9999 11.5303 12.9999 10.9999C12.9999 10.4695 12.7892 9.96074 12.4141 9.58567C12.039 9.2106 11.5303 8.99988 10.9999 8.99988C10.4695 8.99988 9.96074 9.2106 9.58567 9.58567C9.2106 9.96074 8.99988 10.4695 8.99988 10.9999C8.99988 11.5303 9.2106 12.039 9.58567 12.4141C9.96074 12.7892 10.4695 12.9999 10.9999 12.9999Z" fill="#445B6C"/>
</svg>
