<svg width="42" height="42" viewBox="0 0 42 42" fill="none" xmlns="http://www.w3.org/2000/svg">
<rect width="42" height="42" rx="4" fill="#121A20"/>
<g clip-path="url(#clip0_1_1424)">
<path d="M7.5539 16.9347C8.19397 17.0566 8.75277 17.4122 9.13885 17.91C9.50461 18.3774 9.72812 18.9768 9.72812 19.6169C9.72812 20.0335 9.49445 20.6735 9.06773 21.4559C9.19981 21.6794 9.34205 21.9232 9.50461 22.1874C10.0431 21.2527 10.4495 20.3078 10.4495 19.6169C10.4495 18.8346 10.2056 18.1132 9.78908 17.5341C9.39285 16.9855 8.85437 16.5486 8.21429 16.3149C7.86885 16.1727 7.48278 16.1016 7.07638 16.1016C5.20695 16.1016 3.69312 17.6764 3.69312 19.6169C3.69312 21.0291 5.38983 23.4777 6.39566 24.8086C6.55822 25.0322 6.81222 25.1541 7.07638 25.1541C7.34054 25.1541 7.59454 25.0322 7.75709 24.8086C7.97045 24.5343 8.20413 24.2092 8.45813 23.8536C8.30573 23.6301 8.16349 23.4066 8.02125 23.183C7.76725 23.5488 7.49294 23.9247 7.1983 24.321C7.1475 24.3921 7.02558 24.3921 6.96462 24.321C5.36951 22.2179 4.42463 20.4602 4.42463 19.6169C4.42463 18.1132 5.61335 16.8839 7.07638 16.8839C7.23894 16.8839 7.39134 16.9042 7.5539 16.9347Z" fill="#FFA826"/>
<path d="M9.09825 23.8536C9.34209 24.2092 9.58592 24.5343 9.79928 24.8086C9.96184 25.0322 10.2158 25.1541 10.48 25.1541C10.7442 25.1541 10.9982 25.0322 11.1607 24.8086C12.1564 23.4777 13.8531 21.019 13.8531 19.6169C13.8531 17.6764 12.3393 16.1016 10.4698 16.1016C10.0634 16.1016 9.67736 16.1727 9.32177 16.3149C9.5656 16.4978 9.79928 16.701 9.99232 16.9347C10.1447 16.9042 10.3073 16.8839 10.4698 16.8839C11.9329 16.8839 13.1216 18.1031 13.1216 19.6169C13.1216 20.4602 12.1767 22.2179 10.5816 24.321C10.5308 24.3921 10.4089 24.3921 10.3479 24.321C10.0533 23.9247 9.77896 23.5488 9.52496 23.183C9.09825 22.5531 8.73249 21.974 8.45817 21.4559C8.03145 20.6634 7.80793 20.0233 7.80793 19.6169C7.80793 18.9667 8.03145 18.3774 8.39721 17.91C8.20417 17.7475 7.98065 17.6256 7.73681 17.5341C7.32025 18.1132 7.07642 18.8346 7.07642 19.6169C7.07642 20.3078 7.48281 21.2527 8.02129 22.1874C8.35657 22.7665 8.73249 23.3354 9.09825 23.8536Z" fill="#FFA826"/>
<path d="M19.3091 18.9159V21.781C19.3091 23.1018 18.6081 23.7926 17.2568 23.7926C15.8954 23.7926 15.2451 23.1119 15.2451 21.7708V18.8752C15.2451 18.6923 15.3874 18.5298 15.6007 18.5298C15.8242 18.5298 15.9766 18.6923 15.9766 18.8752V21.7505C15.9766 22.736 16.383 23.1424 17.2568 23.1424C18.1204 23.1424 18.5776 22.7563 18.5776 21.7708V18.9159C18.5776 18.7025 18.73 18.5298 18.9332 18.5298C19.1567 18.5298 19.3091 18.7025 19.3091 18.9159Z" fill="#7C8A94"/>
<path d="M23.4847 21.9333C23.4847 23.1423 22.8244 23.7926 21.6458 23.7926C21.341 23.7926 21.087 23.7418 20.8838 23.6707V24.7374C20.8838 24.9203 20.7517 25.0727 20.5282 25.0727C20.3148 25.0727 20.1726 24.9203 20.1726 24.7374V20.4906C20.1726 20.3077 20.3047 20.1858 20.4774 20.1858C20.6704 20.1858 20.7619 20.3077 20.7822 20.4906L20.8025 20.7649C21.0159 20.4296 21.3816 20.1858 21.9303 20.1858C22.8955 20.1858 23.4847 20.7446 23.4847 21.9333ZM22.7736 21.9739C22.7736 21.151 22.4078 20.7954 21.8084 20.7954C21.2699 20.7954 20.8838 21.1713 20.8838 21.659H20.8736V23.0407C21.0667 23.122 21.3004 23.2033 21.6052 23.2033C22.3265 23.1931 22.7736 22.8375 22.7736 21.9739Z" fill="#7C8A94"/>
<path d="M28.5139 19.9014C28.5139 20.0944 28.3717 20.196 28.2091 20.196C28.0262 20.196 27.9449 20.1351 27.8941 19.9725C27.7824 19.7185 27.5589 19.1699 26.6749 19.1699C25.6793 19.1699 25.029 19.7998 25.029 21.1003C25.029 22.4617 25.7301 23.1322 26.868 23.1322C27.4471 23.1322 27.8129 22.9595 27.9856 22.8986C28.0567 22.8782 28.1177 22.8579 28.1989 22.8579C28.3717 22.8579 28.4834 22.99 28.4834 23.1526C28.4834 23.3253 28.4123 23.4066 28.2802 23.4878C27.9551 23.6707 27.3455 23.7926 26.7867 23.7926C25.2424 23.7926 24.2874 22.8782 24.2874 21.1511C24.2874 19.4543 25.2221 18.5298 26.6546 18.5298C27.9449 18.5298 28.5139 19.2918 28.5139 19.9014Z" fill="#7C8A94"/>
<path d="M29.2759 19.1091C29.2759 18.8348 29.4689 18.6316 29.7331 18.6316C30.0074 18.6316 30.1903 18.8348 30.1903 19.1091C30.1903 19.3834 30.0074 19.5866 29.7331 19.5866C29.4689 19.5866 29.2759 19.3834 29.2759 19.1091ZM30.0684 20.501V23.4474C30.0684 23.6303 29.9363 23.7827 29.7128 23.7827C29.4994 23.7827 29.3572 23.6303 29.3572 23.4474V20.501C29.3572 20.3181 29.4994 20.1657 29.7128 20.1657C29.9261 20.1759 30.0684 20.3181 30.0684 20.501Z" fill="#7C8A94"/>
<path d="M32.0597 20.826V22.7157C32.0597 23.0713 32.2223 23.1628 32.4661 23.1628C32.5271 23.1628 32.588 23.1526 32.7099 23.1424C32.9131 23.112 33.0147 23.2644 33.0147 23.4168C33.0147 23.559 32.9335 23.7012 32.7607 23.7317C32.6185 23.752 32.4559 23.7724 32.2934 23.7724C31.6736 23.7724 31.3688 23.5488 31.3688 22.7665V20.826H31.0132C30.8608 20.826 30.7288 20.7041 30.7288 20.5313C30.7288 20.3485 30.8608 20.2367 31.0132 20.2367H31.3688V19.556C31.3688 19.3731 31.5111 19.2207 31.7244 19.2207C31.9378 19.2207 32.0699 19.3731 32.0699 19.556V20.2367H32.7404C32.903 20.2367 33.0249 20.3485 33.0249 20.5313C33.0249 20.7041 32.903 20.826 32.7404 20.826H32.0597Z" fill="#7C8A94"/>
<path d="M36.723 20.4703C36.723 20.5313 36.7027 20.6024 36.6722 20.6634L35.1686 24.2498C34.9146 24.8493 34.5386 25.0525 33.99 25.0525C33.8681 25.0525 33.8071 25.0423 33.7563 25.0423C33.5734 25.022 33.4617 24.9102 33.4617 24.7375C33.4617 24.5749 33.5633 24.4327 33.7462 24.4429C33.797 24.4429 33.8478 24.453 33.9595 24.453C34.305 24.453 34.5082 24.3413 34.6098 24.0669L34.7622 23.6809L33.4617 20.6735C33.4312 20.6126 33.4109 20.5414 33.4109 20.4805C33.4109 20.2773 33.5734 20.1655 33.7462 20.1655C33.8782 20.1655 34.0205 20.2468 34.0814 20.3992L35.0974 22.8478L36.0728 20.389C36.1338 20.2366 36.2557 20.1757 36.4081 20.1757C36.5503 20.1655 36.723 20.2671 36.723 20.4703Z" fill="#7C8A94"/>
<path d="M38.6232 20.6226C38.6232 20.6734 38.5927 20.7039 38.5419 20.7039C38.4911 20.7039 38.4606 20.6734 38.4606 20.6226L38.4504 20.1655L38.2676 20.5718C38.2472 20.6125 38.2168 20.6328 38.1863 20.6328C38.1558 20.6328 38.1253 20.6125 38.105 20.582L37.912 20.1553L37.9018 20.6226C37.9018 20.6734 37.8713 20.7039 37.8205 20.7039C37.7697 20.7039 37.7393 20.6734 37.7393 20.6226L37.7494 20.1045H37.4954V20.6226C37.4954 20.6734 37.4649 20.7039 37.4141 20.7039C37.3633 20.7039 37.3329 20.6734 37.3329 20.6226V20.1045H37.15C37.1093 20.1045 37.0789 20.074 37.0789 20.0334C37.0789 19.9927 37.1093 19.9724 37.15 19.9724H37.8307C37.912 19.9724 37.9729 20.0131 38.0136 20.074L38.1761 20.4398L38.3488 20.0639C38.3793 20.0029 38.4301 19.9724 38.4809 19.9724C38.552 19.9724 38.6028 20.0232 38.6028 20.1045L38.6232 20.6226Z" fill="#7C8A94"/>
</g>
<defs>
<clipPath id="clip0_1_1424">
<rect width="35.1331" height="9.25571" fill="white" transform="translate(3.59155 16)"/>
</clipPath>
</defs>
</svg>
