<svg width="56" height="56" viewBox="0 0 56 56" fill="none" xmlns="http://www.w3.org/2000/svg">
<rect width="56" height="56" rx="4" fill="#1F2A32"/>
<g clip-path="url(#clip0_1_215)">
<path d="M8.67478 22.3387C9.59148 22.5133 10.3918 23.0226 10.9447 23.7355C11.4685 24.4049 11.7886 25.2634 11.7886 26.1801C11.7886 26.7766 11.454 27.6933 10.8428 28.8137C11.032 29.1339 11.2357 29.4831 11.4685 29.8614C12.2397 28.5227 12.8217 27.1695 12.8217 26.1801C12.8217 25.0597 12.4725 24.0266 11.8759 23.1972C11.3085 22.4114 10.5373 21.7857 9.62058 21.4511C9.12586 21.2474 8.57293 21.1455 7.9909 21.1455C5.31357 21.1455 3.14551 23.4009 3.14551 26.1801C3.14551 28.2026 5.57548 31.7093 7.016 33.6155C7.24881 33.9356 7.61258 34.1102 7.9909 34.1102C8.36922 34.1102 8.73299 33.9356 8.9658 33.6155C9.27136 33.2226 9.60603 32.757 9.9698 32.2477C9.75154 31.9276 9.54783 31.6075 9.34412 31.2874C8.98035 31.8112 8.58748 32.3496 8.16551 32.917C8.09275 33.0189 7.91815 33.0189 7.83084 32.917C5.54638 29.905 4.19316 27.3878 4.19316 26.1801C4.19316 24.0266 5.8956 22.2659 7.9909 22.2659C8.22371 22.2659 8.44197 22.295 8.67478 22.3387Z" fill="#FFA826"/>
<path d="M10.8863 32.2477C11.2355 32.757 11.5848 33.2226 11.8903 33.6155C12.1231 33.9356 12.4869 34.1102 12.8652 34.1102C13.2435 34.1102 13.6073 33.9356 13.8401 33.6155C15.2661 31.7093 17.6961 28.1881 17.6961 26.1801C17.6961 23.4009 15.528 21.1455 12.8507 21.1455C12.2686 21.1455 11.7157 21.2474 11.2064 21.4511C11.5557 21.713 11.8903 22.004 12.1668 22.3387C12.385 22.295 12.6179 22.2659 12.8507 22.2659C14.946 22.2659 16.6484 24.012 16.6484 26.1801C16.6484 27.3878 15.2952 29.905 13.0107 32.917C12.938 33.0189 12.7634 33.0189 12.6761 32.917C12.2541 32.3496 11.8612 31.8112 11.4974 31.2874C10.8863 30.3852 10.3625 29.5558 9.96962 28.8137C9.35849 27.6788 9.03838 26.7621 9.03838 26.1801C9.03838 25.2488 9.35849 24.4049 9.88232 23.7355C9.60585 23.5027 9.28574 23.3281 8.93652 23.1972C8.33994 24.0266 7.99072 25.0597 7.99072 26.1801C7.99072 27.1695 8.57275 28.5227 9.34394 29.8614C9.82411 30.6908 10.3625 31.5056 10.8863 32.2477Z" fill="#FFA826"/>
<path d="M25.5097 25.176V29.2793C25.5097 31.1709 24.5057 32.1603 22.5705 32.1603C20.6207 32.1603 19.6895 31.1854 19.6895 29.2647V25.1178C19.6895 24.8559 19.8932 24.623 20.1987 24.623C20.5188 24.623 20.7371 24.8559 20.7371 25.1178V29.2356C20.7371 30.647 21.3191 31.2291 22.5705 31.2291C23.8073 31.2291 24.4621 30.6761 24.4621 29.2647V25.176C24.4621 24.8704 24.6804 24.623 24.9714 24.623C25.2915 24.623 25.5097 24.8704 25.5097 25.176Z" fill="#7C8A94"/>
<path d="M31.4901 29.4976C31.4901 31.2291 30.5443 32.1604 28.8564 32.1604C28.4199 32.1604 28.0561 32.0876 27.7651 31.9858V33.5136C27.7651 33.7755 27.576 33.9938 27.2559 33.9938C26.9503 33.9938 26.7466 33.7755 26.7466 33.5136V27.4314C26.7466 27.1695 26.9357 26.9949 27.1831 26.9949C27.4596 26.9949 27.5905 27.1695 27.6196 27.4314L27.6487 27.8243C27.9543 27.3441 28.4781 26.9949 29.2639 26.9949C30.6462 26.9949 31.4901 27.7952 31.4901 29.4976ZM30.4716 29.5558C30.4716 28.3772 29.9477 27.8679 29.0892 27.8679C28.3181 27.8679 27.7651 28.4063 27.7651 29.1047H27.7506V31.0836C28.027 31.2 28.3617 31.3164 28.7982 31.3164C29.8313 31.3019 30.4716 30.7926 30.4716 29.5558Z" fill="#7C8A94"/>
<path d="M38.6928 26.5874C38.6928 26.8639 38.489 27.0094 38.2562 27.0094C37.9943 27.0094 37.8779 26.9221 37.8052 26.6892C37.6451 26.3255 37.325 25.5397 36.0591 25.5397C34.6331 25.5397 33.7019 26.4419 33.7019 28.3044C33.7019 30.2542 34.7059 31.2145 36.3355 31.2145C37.1649 31.2145 37.6888 30.9672 37.9361 30.8799C38.038 30.8508 38.1253 30.8217 38.2417 30.8217C38.489 30.8217 38.6491 31.0108 38.6491 31.2436C38.6491 31.491 38.5473 31.6074 38.3581 31.7238C37.8925 31.9857 37.0194 32.1603 36.2191 32.1603C34.0074 32.1603 32.6396 30.8508 32.6396 28.3771C32.6396 25.9472 33.9783 24.623 36.03 24.623C37.8779 24.623 38.6928 25.7144 38.6928 26.5874Z" fill="#7C8A94"/>
<path d="M39.7842 25.4527C39.7842 25.0598 40.0606 24.7688 40.439 24.7688C40.8318 24.7688 41.0938 25.0598 41.0938 25.4527C41.0938 25.8456 40.8318 26.1366 40.439 26.1366C40.0606 26.1366 39.7842 25.8456 39.7842 25.4527ZM40.9191 27.4461V31.6658C40.9191 31.9278 40.73 32.146 40.4099 32.146C40.1043 32.146 39.9006 31.9278 39.9006 31.6658V27.4461C39.9006 27.1842 40.1043 26.966 40.4099 26.966C40.7154 26.9805 40.9191 27.1842 40.9191 27.4461Z" fill="#7C8A94"/>
<path d="M43.7714 27.9116V30.618C43.7714 31.1273 44.0042 31.2582 44.3534 31.2582C44.4407 31.2582 44.528 31.2437 44.7026 31.2291C44.9936 31.1855 45.1391 31.4037 45.1391 31.622C45.1391 31.8257 45.0227 32.0294 44.7754 32.0731C44.5717 32.1022 44.3389 32.1313 44.106 32.1313C43.2184 32.1313 42.7819 31.8112 42.7819 30.6908V27.9116H42.2727C42.0544 27.9116 41.8652 27.737 41.8652 27.4896C41.8652 27.2277 42.0544 27.0676 42.2727 27.0676H42.7819V26.0927C42.7819 25.8308 42.9856 25.6125 43.2912 25.6125C43.5968 25.6125 43.7859 25.8308 43.7859 26.0927V27.0676H44.7463C44.9791 27.0676 45.1537 27.2277 45.1537 27.4896C45.1537 27.737 44.9791 27.9116 44.7463 27.9116H43.7714Z" fill="#7C8A94"/>
<path d="M50.4501 27.4023C50.4501 27.4896 50.421 27.5915 50.3773 27.6788L48.2238 32.8152C47.86 33.6737 47.3217 33.9647 46.5359 33.9647C46.3613 33.9647 46.274 33.9502 46.2013 33.9502C45.9394 33.9211 45.7793 33.761 45.7793 33.5136C45.7793 33.2808 45.9248 33.0771 46.1867 33.0917C46.2595 33.0917 46.3322 33.1062 46.4923 33.1062C46.987 33.1062 47.278 32.9462 47.4235 32.5533L47.6418 32.0004L45.7793 27.6934C45.7356 27.6061 45.7065 27.5042 45.7065 27.4169C45.7065 27.1259 45.9394 26.9658 46.1867 26.9658C46.3759 26.9658 46.5796 27.0822 46.6669 27.3005L48.122 30.8072L49.5188 27.2859C49.6061 27.0677 49.7807 26.9804 49.999 26.9804C50.2027 26.9658 50.4501 27.1113 50.4501 27.4023Z" fill="#7C8A94"/>
<path d="M53.1707 27.6205C53.1707 27.6932 53.127 27.7369 53.0543 27.7369C52.9815 27.7369 52.9379 27.6932 52.9379 27.6205L52.9233 26.9657L52.6614 27.5477C52.6323 27.6059 52.5887 27.635 52.545 27.635C52.5014 27.635 52.4577 27.6059 52.4286 27.5623L52.1521 26.9511L52.1376 27.6205C52.1376 27.6932 52.0939 27.7369 52.0212 27.7369C51.9484 27.7369 51.9048 27.6932 51.9048 27.6205L51.9193 26.8784H51.5556V27.6205C51.5556 27.6932 51.5119 27.7369 51.4392 27.7369C51.3664 27.7369 51.3228 27.6932 51.3228 27.6205V26.8784H51.0608C51.0026 26.8784 50.959 26.8347 50.959 26.7765C50.959 26.7183 51.0026 26.6892 51.0608 26.6892H52.0357C52.1521 26.6892 52.2394 26.7474 52.2976 26.8347L52.5305 27.3585L52.7778 26.8202C52.8215 26.7329 52.8942 26.6892 52.967 26.6892C53.0688 26.6892 53.1416 26.762 53.1416 26.8784L53.1707 27.6205Z" fill="#7C8A94"/>
</g>
<defs>
<clipPath id="clip0_1_215">
<rect width="50.3164" height="13.2557" fill="white" transform="translate(3 21)"/>
</clipPath>
</defs>
</svg>
