<svg width="14" height="14" viewBox="0 0 14 14" fill="none" xmlns="http://www.w3.org/2000/svg">
<path d="M10.3335 2.00008H13.0002C13.177 2.00008 13.3465 2.07032 13.4716 2.19534C13.5966 2.32037 13.6668 2.48994 13.6668 2.66675V13.3334C13.6668 13.5102 13.5966 13.6798 13.4716 13.8048C13.3465 13.9298 13.177 14.0001 13.0002 14.0001H1.00016C0.823352 14.0001 0.653782 13.9298 0.528758 13.8048C0.403734 13.6798 0.333496 13.5102 0.333496 13.3334V2.66675C0.333496 2.48994 0.403734 2.32037 0.528758 2.19534C0.653782 2.07032 0.823352 2.00008 1.00016 2.00008H3.66683V0.666748H5.00016V2.00008H9.00016V0.666748H10.3335V2.00008ZM9.00016 3.33341H5.00016V4.66675H3.66683V3.33341H1.66683V6.00008H12.3335V3.33341H10.3335V4.66675H9.00016V3.33341ZM12.3335 7.33341H1.66683V12.6667H12.3335V7.33341Z" fill="#445B6C"/>
</svg>
