<svg width="42" height="42" viewBox="0 0 42 42" fill="none" xmlns="http://www.w3.org/2000/svg">
<rect x="0.5" y="0.5" width="41" height="41" rx="3.5" fill="#121A20"/>
<g clip-path="url(#clip0_1_628)">
<path d="M21 31C15.477 31 11 26.523 11 21C11 15.477 15.477 11 21 11C26.523 11 31 15.477 31 21C31 26.523 26.523 31 21 31ZM21 29C23.1217 29 25.1566 28.1571 26.6569 26.6569C28.1571 25.1566 29 23.1217 29 21C29 18.8783 28.1571 16.8434 26.6569 15.3431C25.1566 13.8429 23.1217 13 21 13C18.8783 13 16.8434 13.8429 15.3431 15.3431C13.8429 16.8434 13 18.8783 13 21C13 23.1217 13.8429 25.1566 15.3431 26.6569C16.8434 28.1571 18.8783 29 21 29ZM21 19.586L23.828 16.757L25.243 18.172L22.414 21L25.243 23.828L23.828 25.243L21 22.414L18.172 25.243L16.757 23.828L19.586 21L16.757 18.172L18.172 16.757L21 19.586Z" fill="#FFB016"/>
</g>
<rect x="0.5" y="0.5" width="41" height="41" rx="3.5" stroke="#1F2A32"/>
<defs>
<clipPath id="clip0_1_628">
<rect width="24" height="24" fill="white" transform="translate(9 9)"/>
</clipPath>
</defs>
</svg>
