<svg width="14" height="14" viewBox="0 0 14 14" fill="none" xmlns="http://www.w3.org/2000/svg">
<path d="M7.66659 12.2919C9.01144 12.1208 10.2407 11.444 11.1045 10.3991C11.9682 9.35421 12.4017 8.01961 12.3168 6.66657C12.2319 5.31353 11.635 4.04358 10.6474 3.11484C9.65981 2.1861 8.35562 1.66827 6.99992 1.66659C5.64256 1.66557 4.33588 2.18214 3.34614 3.11104C2.35641 4.03993 1.75808 5.31125 1.67308 6.66594C1.58808 8.02064 2.02281 9.35677 2.88868 10.4021C3.75455 11.4474 4.98641 12.1233 6.33325 12.2919V8.33325H4.99992V6.99992H6.33325V5.89725C6.33325 5.00592 6.42659 4.68259 6.59992 4.35659C6.77066 4.03404 7.03456 3.77038 7.35725 3.59992C7.61192 3.46325 7.92859 3.38125 8.48192 3.34592C8.70125 3.33192 8.98525 3.34925 9.33392 3.39925V4.66592H8.99992C8.38859 4.66592 8.13592 4.69459 7.98525 4.77525C7.89535 4.82149 7.82216 4.89468 7.77592 4.98459C7.69592 5.13525 7.66659 5.28459 7.66659 5.89659V6.99992H9.33325L8.99992 8.33325H7.66659V12.2919ZM6.99992 13.6666C3.31792 13.6666 0.333252 10.6819 0.333252 6.99992C0.333252 3.31792 3.31792 0.333252 6.99992 0.333252C10.6819 0.333252 13.6666 3.31792 13.6666 6.99992C13.6666 10.6819 10.6819 13.6666 6.99992 13.6666Z" fill="#6F8394"/>
</svg>
