<svg width="22" height="20" viewBox="0 0 22 20" fill="none" xmlns="http://www.w3.org/2000/svg">
<path d="M10.9999 19.9999L1.80794 10.8079C-0.372058 8.2399 -0.258058 4.3879 2.16094 1.9679C3.32096 0.807911 4.87669 0.129449 6.51605 0.0686149C8.15541 0.00778099 9.75715 0.569075 10.9999 1.6399C12.2415 0.569076 13.8418 0.00698623 15.4803 0.0662655C17.1187 0.125545 18.6743 0.801814 19.8352 1.95956C20.9961 3.1173 21.6766 4.67099 21.7404 6.30929C21.8041 7.94758 21.2464 9.54945 20.1789 10.7939L10.9999 19.9999ZM18.6619 9.4909C19.4008 8.62931 19.7867 7.52034 19.7425 6.3862C19.6983 5.25206 19.2271 4.17653 18.4234 3.3751C17.6197 2.57367 16.5428 2.10555 15.4086 2.06453C14.2743 2.02351 13.1664 2.41262 12.3069 3.1539L10.9999 4.2819L9.69294 3.1539C8.83345 2.41262 7.72558 2.02351 6.59132 2.06453C5.45706 2.10555 4.3802 2.57367 3.57649 3.3751C2.77279 4.17653 2.30161 5.25206 2.25738 6.3862C2.21314 7.52034 2.5991 8.62931 3.33794 9.4909L3.45194 9.6229L10.9999 17.1719L18.5479 9.6229L18.6619 9.4909Z" fill="#445B6C"/>
</svg>
