<svg width="12" height="10" viewBox="0 0 12 10" fill="none" xmlns="http://www.w3.org/2000/svg">
<path d="M10.5896 5.39695L10.5961 5.40395L6.00011 9.99995L1.40411 5.40395L1.41061 5.39695C0.876889 4.77472 0.598027 3.97379 0.629901 3.15464C0.661775 2.33549 1.00203 1.55865 1.58248 0.979779C2.16294 0.400907 2.9407 0.0627724 3.75994 0.0331328C4.57917 0.00349312 5.37934 0.284538 6.00011 0.81995C6.62087 0.284538 7.42104 0.00349312 8.24028 0.0331328C9.05951 0.0627724 9.83728 0.400907 10.4177 0.979779C10.9982 1.55865 11.3384 2.33549 11.3703 3.15464C11.4022 3.97379 11.1233 4.77472 10.5896 5.39695Z" fill="#724FFF"/>
</svg>
