<svg width="14" height="14" viewBox="0 0 14 14" fill="none" xmlns="http://www.w3.org/2000/svg">
<path d="M7.70659 4.40666L8.64993 5.34999C9.08332 5.78334 9.4271 6.29781 9.66165 6.86403C9.89621 7.43024 10.0169 8.03712 10.0169 8.64999C10.0169 9.26287 9.89621 9.86974 9.66165 10.436C9.4271 11.0022 9.08332 11.5166 8.64993 11.95L8.41393 12.1853C7.53871 13.0605 6.35167 13.5522 5.11393 13.5522C3.87619 13.5522 2.68914 13.0605 1.81393 12.1853C0.938712 11.3101 0.447021 10.1231 0.447021 8.88533C0.447021 7.64759 0.938712 6.46054 1.81393 5.58533L2.75726 6.52866C2.44551 6.83769 2.19786 7.20526 2.02855 7.61026C1.85923 8.01526 1.77157 8.44972 1.77061 8.88868C1.76965 9.32765 1.8554 9.76248 2.02294 10.1682C2.19049 10.574 2.43652 10.9426 2.74691 11.253C3.05731 11.5634 3.42596 11.8094 3.8317 11.977C4.23744 12.1445 4.67227 12.2303 5.11124 12.2293C5.5502 12.2283 5.98466 12.1407 6.38966 11.9714C6.79466 11.8021 7.16222 11.5544 7.47126 11.2427L7.70726 11.0067C8.33216 10.3816 8.68321 9.53387 8.68321 8.64999C8.68321 7.76611 8.33216 6.91842 7.70726 6.29332L6.76393 5.34999L7.70726 4.40733L7.70659 4.40666ZM12.1853 8.41399L11.2426 7.47132C11.5543 7.16229 11.802 6.79472 11.9713 6.38972C12.1406 5.98472 12.2283 5.55027 12.2292 5.1113C12.2302 4.67234 12.1444 4.2375 11.9769 3.83176C11.8094 3.42603 11.5633 3.05738 11.2529 2.74698C10.9425 2.43658 10.5739 2.19055 10.1682 2.02301C9.76242 1.85547 9.32758 1.76972 8.88862 1.77068C8.44965 1.77164 8.01519 1.85929 7.6102 2.02861C7.2052 2.19793 6.83763 2.44557 6.52859 2.75733L6.29259 2.99333C5.66769 3.61842 5.31664 4.46611 5.31664 5.34999C5.31664 6.23387 5.66769 7.08157 6.29259 7.70666L7.23593 8.64999L6.29259 9.59266L5.34993 8.64999C4.91654 8.21665 4.57275 7.70218 4.3382 7.13596C4.10365 6.56974 3.98292 5.96287 3.98292 5.34999C3.98292 4.73712 4.10365 4.13024 4.3382 3.56403C4.57275 2.99781 4.91654 2.48334 5.34993 2.04999L5.58593 1.81466C6.46114 0.939444 7.64819 0.447754 8.88593 0.447754C10.1237 0.447754 11.3107 0.939444 12.1859 1.81466C13.0611 2.68987 13.5528 3.87692 13.5528 5.11466C13.5528 6.3524 13.0611 7.53944 12.1859 8.41466L12.1853 8.41399Z" fill="#6F8394"/>
</svg>
