<svg width="42" height="42" viewBox="0 0 42 42" fill="none" xmlns="http://www.w3.org/2000/svg">
<rect x="0.5" y="0.5" width="41" height="41" rx="3.5" fill="#121A20"/>
<g clip-path="url(#clip0_1_556)">
<path d="M26.849 20.808L26.142 20.101L16.242 30.001H12V25.758L23.313 14.444L28.97 20.101C29.1575 20.2886 29.2628 20.5429 29.2628 20.808C29.2628 21.0732 29.1575 21.3275 28.97 21.515L21.9 28.586L20.485 27.172L26.849 20.808ZM24.728 18.687L23.313 17.273L14 26.586V28.001H15.414L24.728 18.687ZM27.556 11.616L30.385 14.444C30.5725 14.6316 30.6778 14.8859 30.6778 15.151C30.6778 15.4162 30.5725 15.6705 30.385 15.858L28.97 17.273L24.728 13.03L26.142 11.616C26.3295 11.4286 26.5838 11.3232 26.849 11.3232C27.1142 11.3232 27.3685 11.4286 27.556 11.616Z" fill="#6F8394"/>
</g>
<rect x="0.5" y="0.5" width="41" height="41" rx="3.5" stroke="#1F2A32"/>
<defs>
<clipPath id="clip0_1_556">
<rect width="24" height="24" fill="white" transform="translate(9 9)"/>
</clipPath>
</defs>
</svg>
