<svg width="20" height="24" viewBox="0 0 20 24" fill="none" xmlns="http://www.w3.org/2000/svg">
<path d="M13.7028 0H4.06338C2.65516 0 1.50902 1.14694 1.50902 2.55436V12H1.25954C0.69117 12 0.230225 12.4604 0.230225 13.0293V19.2717C0.230225 19.8405 0.69112 20.3009 1.25954 20.3009H1.50902V21.4456C1.50902 22.8546 2.65516 24 4.06338 24H17.2159C18.6232 24 19.7695 22.8545 19.7695 21.4456V6.0455L13.7028 0ZM2.93054 14.1558C3.23219 14.1049 3.6562 14.0664 4.25359 14.0664C4.8573 14.0664 5.28758 14.1817 5.57669 14.4131C5.85286 14.6313 6.03923 14.9913 6.03923 15.415C6.03923 15.8386 5.89801 16.1988 5.64105 16.4427C5.30684 16.7573 4.81259 16.8986 4.23442 16.8986C4.10575 16.8986 3.99041 16.8922 3.90021 16.8797V18.4276H2.93054V14.1558ZM17.2159 22.4356H4.06338C3.51812 22.4356 3.0741 21.9916 3.0741 21.4456V20.3009H15.3349C15.9034 20.3009 16.3643 19.8405 16.3643 19.2717V13.0293C16.3643 12.4604 15.9034 12 15.3349 12H3.0741V2.55436C3.0741 2.00989 3.51817 1.56587 4.06338 1.56587L13.1175 1.55641V4.90314C13.1175 5.88068 13.9107 6.67459 14.889 6.67459L18.1675 6.66518L18.2043 21.4455C18.2043 21.9916 17.7611 22.4356 17.2159 22.4356ZM6.66449 18.408V14.1558C7.02414 14.0986 7.4929 14.0664 7.98759 14.0664C8.80972 14.0664 9.34285 14.2139 9.76058 14.5285C10.2101 14.8627 10.4925 15.3954 10.4925 16.1603C10.4925 16.9887 10.1909 17.5607 9.77308 17.9136C9.31726 18.2925 8.6234 18.4722 7.77573 18.4722C7.2681 18.4722 6.90845 18.4401 6.66449 18.408ZM13.6746 15.8905V16.6867H12.12V18.4276H11.1374V14.0986H13.7836V14.9011H12.12V15.8905H13.6746Z" fill="#724FFF"/>
</svg>
