<svg width="96" height="96" viewBox="0 0 96 96" fill="none" xmlns="http://www.w3.org/2000/svg">
<circle cx="48" cy="48" r="48" fill="#FFB016" fill-opacity="0.1"/>
<g clip-path="url(#clip0_44_234)">
<path d="M62.1569 46.0511V39.9391C62.1569 37.8912 60.4907 36.225 58.4424 36.225C57.5423 36.225 56.7161 36.5472 56.0727 37.0819C55.4223 36.0023 54.2387 35.2787 52.8892 35.2787C52.4395 35.2787 52.0085 35.3592 51.6089 35.5065L52.571 28.1995C52.8383 26.1688 51.4039 24.2997 49.3732 24.032C47.3429 23.765 45.4734 25.1995 45.2061 27.2301L43.9364 36.8743L41.3338 27.1598C41.0778 26.2047 40.4626 25.4049 39.6012 24.9076C38.7403 24.4103 37.7398 24.2773 36.7847 24.5333C35.8293 24.7893 35.0294 25.4045 34.5325 26.2655C34.0352 27.1268 33.9026 28.1269 34.1586 29.0824L34.4651 30.2275C34.5991 30.7274 35.1133 31.0244 35.6136 30.8904C36.1134 30.7563 36.4101 30.2422 36.2764 29.7423L35.9695 28.5972C35.8432 28.1255 35.9095 27.6304 36.1559 27.203C36.4027 26.7756 36.7982 26.4706 37.2699 26.3442C37.7412 26.2183 38.2364 26.2845 38.6637 26.5314C39.0915 26.7782 39.3962 27.1737 39.5225 27.645L43.3454 41.9119C43.3684 41.999 43.4043 42.0796 43.449 42.1536H40.5314C40.2212 42.1536 39.9198 42.1924 39.6316 42.2645L38.2173 36.9863C38.0833 36.4864 37.5695 36.1894 37.0692 36.3235C36.569 36.4575 36.2724 36.9717 36.4064 37.4719L37.943 43.2075C37.2494 43.8828 36.8177 44.8254 36.8177 45.8677V52.5349C36.8177 56.4156 38.5989 60.0382 41.5769 62.42V71.0626C41.5769 71.5804 41.9966 72.0001 42.5144 72.0001C43.0323 72.0001 43.4519 71.5804 43.4519 71.0626V63.6622C43.5819 63.7248 43.7196 63.7563 43.8562 63.7563C44.1873 63.7563 44.5085 63.5806 44.6791 63.2696C44.9281 62.8159 44.7619 62.2461 44.3081 61.9967C40.8442 60.0964 38.6923 56.4706 38.6923 52.5349V45.8677C38.6923 45.2389 39.0102 44.6833 39.4928 44.3516C39.5056 44.3439 39.5177 44.3354 39.5298 44.3274C39.8184 44.1391 40.1619 44.0286 40.5314 44.0286H47.336C48.35 44.0286 49.1751 44.8536 49.1751 45.8677C49.1751 46.8817 48.35 47.7068 47.336 47.7068H43.3084C42.7906 47.7068 42.3709 48.1265 42.3709 48.6443C42.3709 49.1621 42.7906 49.5818 43.3084 49.5818H44.4535H44.4543C47.3598 49.5818 50.087 51.1323 51.5719 53.6284C51.7474 53.9228 52.0586 54.0865 52.3787 54.0865C52.5417 54.0865 52.7068 54.0441 52.857 53.9547C53.3019 53.6899 53.448 53.1146 53.1833 52.6697C53.1324 52.5836 53.0793 52.4986 53.0258 52.4144C54.8257 52.3492 56.303 50.9975 56.5627 49.2533C57.1146 49.5788 57.7569 49.7663 58.4428 49.7663C59.1115 49.7663 59.7392 49.5876 60.2819 49.2767V52.5349C60.2819 57.0463 57.4225 61.1233 53.1668 62.6797C52.6805 62.8577 52.4303 63.396 52.6083 63.8823C52.7471 64.2621 53.1064 64.4979 53.4887 64.4979C53.5956 64.4979 53.7044 64.4796 53.8106 64.4408C55.1769 63.9409 56.4195 63.2184 57.5053 62.3256V71.0626C57.5053 71.5804 57.925 72.0001 58.4428 72.0001C58.9606 72.0001 59.3803 71.5804 59.3803 71.0626V60.4213C61.1341 58.2218 62.1569 55.4569 62.1569 52.5349V46.0541C62.1569 46.0533 62.1569 46.0526 62.1569 46.0522C62.1569 46.0519 62.1569 46.0515 62.1569 46.0511ZM47.336 42.1536H45.053C45.1182 42.0455 45.1629 41.9232 45.1805 41.7917L47.065 27.4747C47.1976 26.4691 48.1237 25.759 49.1286 25.8912C50.1342 26.0234 50.8443 26.9492 50.7121 27.9548L49.4399 37.6188C49.2699 38.0439 49.1755 38.5076 49.1755 38.9928V42.6428C48.6327 42.3323 48.005 42.1536 47.336 42.1536ZM54.7283 48.704C54.7283 49.718 53.9036 50.5431 52.8892 50.5431C51.8752 50.5431 51.0501 49.718 51.0501 48.704V38.9928C51.0501 38.7368 51.1028 38.4933 51.198 38.2714C51.2006 38.2655 51.2039 38.2596 51.2065 38.2534C51.4917 37.6067 52.1381 37.1537 52.8892 37.1537C53.9036 37.1537 54.7283 37.9787 54.7283 38.9928V48.704ZM58.4428 47.8913C57.4284 47.8913 56.6033 47.0663 56.6033 46.0522V39.9391C56.6033 38.925 57.4284 38.1 58.4428 38.1C59.4568 38.1 60.2819 38.925 60.2819 39.9391V46.053C60.2815 47.0666 59.4565 47.8913 58.4428 47.8913Z" fill="#FFB016"/>
<path d="M54.0067 57.1362C54.2023 57.1362 54.3997 57.0751 54.5685 56.9487C54.9827 56.6378 55.0665 56.0504 54.756 55.6362L54.7556 55.6355C54.4447 55.2213 53.8573 55.1378 53.4431 55.4484C53.0289 55.7589 52.9454 56.347 53.256 56.7612C53.4402 57.0066 53.7218 57.1362 54.0067 57.1362Z" fill="#FFB016"/>
<path d="M37.2584 33.4109L37.258 33.4101C37.1496 32.904 36.6516 32.5818 36.1451 32.6902C35.639 32.7986 35.3164 33.2974 35.4248 33.8035C35.5193 34.2436 35.9082 34.545 36.3407 34.545C36.4059 34.545 36.4718 34.5381 36.5381 34.5238C37.0442 34.4154 37.3668 33.917 37.2584 33.4109Z" fill="#FFB016"/>
</g>
<defs>
<clipPath id="clip0_44_234">
<rect width="48" height="48" fill="white" transform="translate(24 24)"/>
</clipPath>
</defs>
</svg>
