<svg width="96" height="96" viewBox="0 0 96 96" fill="none" xmlns="http://www.w3.org/2000/svg">
<circle cx="48" cy="48" r="48" fill="#724FFF" fill-opacity="0.08"/>
<g clip-path="url(#clip0_44_233)">
<path d="M28 68V34H24V70C24 70.5304 24.2107 71.0391 24.5858 71.4142C24.9609 71.7893 25.4696 72 26 72H72V68H28Z" fill="#724FFF"/>
<path d="M42 52C42 51.4696 41.7893 50.9609 41.4142 50.5858C41.0391 50.2107 40.5304 50 40 50H34C33.4696 50 32.9609 50.2107 32.5858 50.5858C32.2107 50.9609 32 51.4696 32 52V66H42V52Z" fill="#724FFF"/>
<path d="M56 44C56 43.4696 55.7893 42.9609 55.4142 42.5858C55.0391 42.2107 54.5304 42 54 42H48C47.4696 42 46.9609 42.2107 46.5858 42.5858C46.2107 42.9609 46 43.4696 46 44V66H56V44Z" fill="#724FFF"/>
<path d="M70 36C70 35.4696 69.7893 34.9609 69.4142 34.5858C69.0391 34.2107 68.5304 34 68 34H62C61.4696 34 60.9609 34.2107 60.5858 34.5858C60.2107 34.9609 60 35.4696 60 36V66H70V36Z" fill="#724FFF"/>
</g>
<defs>
<clipPath id="clip0_44_233">
<rect width="48" height="48" fill="white" transform="translate(24 24)"/>
</clipPath>
</defs>
</svg>
