<svg width="96" height="96" viewBox="0 0 96 96" fill="none" xmlns="http://www.w3.org/2000/svg">
<circle cx="48" cy="48" r="48" fill="#01BC9A" fill-opacity="0.1"/>
<g clip-path="url(#clip0_44_238)">
<path d="M28 23.9998C26.896 23.9998 26 24.8938 26 25.9998V27.8138V52.3898V69.9998C26 71.1058 26.896 71.9998 28 71.9998C29.104 71.9998 30 71.1058 30 69.9998V52.9958C33.302 51.8158 40.536 49.9218 47.43 52.7518C51.656 54.4878 55.932 55.0098 59.548 55.0098C64.8 55.0098 68.656 53.9078 68.922 53.8298C69.562 53.6418 70 53.0558 70 52.3898V27.8138C70 27.3418 69.778 26.8958 69.4 26.6118C69.022 26.3298 68.53 26.2398 68.078 26.3738C67.978 26.4038 57.974 29.2578 48.57 25.4018C42.288 22.8218 34.174 24.3698 29.902 25.5158C29.682 24.6518 28.932 23.9998 28 23.9998Z" fill="#34C9AF"/>
</g>
<defs>
<clipPath id="clip0_44_238">
<rect width="48" height="48" fill="white" transform="translate(24 24)"/>
</clipPath>
</defs>
</svg>
