<svg width="96" height="96" viewBox="0 0 96 96" fill="none" xmlns="http://www.w3.org/2000/svg">
<circle cx="48" cy="48" r="48" fill="#9069FF" fill-opacity="0.1"/>
<path d="M64.071 49.6238H60.3589C60.7373 50.6597 60.944 51.7777 60.944 52.9429V66.9726C60.944 67.4584 60.8594 67.9247 60.7056 68.3584H66.8425C69.135 68.3584 71 66.4934 71 64.201V56.5528C71.0001 52.7322 67.8917 49.6238 64.071 49.6238Z" fill="#9069FF"/>
<path d="M33.0561 52.9429C33.0561 51.7776 33.2628 50.6597 33.6412 49.6238H29.9291C26.1084 49.6238 23 52.7322 23 56.5529V64.2011C23 66.4935 24.865 68.3585 27.1574 68.3585H33.2945C33.1407 67.9247 33.0561 67.4584 33.0561 66.9726V52.9429Z" fill="#9069FF"/>
<path d="M51.2432 46.0139H42.7567C38.936 46.0139 35.8276 49.1223 35.8276 52.943V66.9727C35.8276 67.738 36.4481 68.3585 37.2135 68.3585H56.7864C57.5518 68.3585 58.1722 67.7381 58.1722 66.9727V52.943C58.1722 49.1223 55.0639 46.0139 51.2432 46.0139Z" fill="#9069FF"/>
<path d="M47.0001 27.6411C42.4052 27.6411 38.667 31.3793 38.667 35.9743C38.667 39.091 40.3872 41.813 42.9277 43.2422C44.1326 43.92 45.5218 44.3074 47.0001 44.3074C48.4783 44.3074 49.8675 43.92 51.0725 43.2422C53.613 41.813 55.3331 39.0909 55.3331 35.9743C55.3331 31.3794 51.5949 27.6411 47.0001 27.6411Z" fill="#9069FF"/>
<path d="M32.3673 35.4084C28.9309 35.4084 26.1353 38.2041 26.1353 41.6405C26.1353 45.0769 28.9309 47.8725 32.3673 47.8725C33.239 47.8725 34.0691 47.692 34.8231 47.3674C36.1268 46.8061 37.2017 45.8126 37.8669 44.568C38.3337 43.6946 38.5993 42.6981 38.5993 41.6405C38.5993 38.2042 35.8037 35.4084 32.3673 35.4084Z" fill="#9069FF"/>
<path d="M61.6329 35.4084C58.1965 35.4084 55.4009 38.2041 55.4009 41.6405C55.4009 42.6982 55.6665 43.6947 56.1334 44.568C56.7985 45.8127 57.8734 46.8062 59.1771 47.3674C59.9312 47.692 60.7612 47.8725 61.6329 47.8725C65.0693 47.8725 67.865 45.0769 67.865 41.6405C67.865 38.2041 65.0693 35.4084 61.6329 35.4084Z" fill="#9069FF"/>
</svg>
