<svg width="15" height="12" viewBox="0 0 15 12" fill="none" xmlns="http://www.w3.org/2000/svg">
<path d="M10.2002 1.70016C9.69349 1.70007 9.20702 1.89891 8.84544 2.25387C8.48387 2.60883 8.2761 3.09155 8.26684 3.59816L8.24817 4.64816C8.24708 4.70453 8.23408 4.76004 8.21003 4.81104C8.18598 4.86204 8.15141 4.90738 8.1086 4.94408C8.0658 4.98078 8.01571 5.00801 7.96164 5.024C7.90757 5.03998 7.85072 5.04435 7.79484 5.03682L6.75418 4.89549C5.38484 4.70882 4.07284 4.07816 2.81418 3.02949C2.41551 5.23616 3.19418 6.76482 5.06951 7.94416L6.23418 8.67616C6.28951 8.71093 6.33549 8.75874 6.36807 8.81539C6.40066 8.87205 6.41887 8.93583 6.42111 9.00115C6.42334 9.06647 6.40954 9.13134 6.3809 9.19009C6.35227 9.24884 6.30967 9.29968 6.25684 9.33816L5.19551 10.1135C5.82684 10.1528 6.42618 10.1248 6.92351 10.0262C10.0688 9.39816 12.1602 7.03149 12.1602 3.12749C12.1602 2.80882 11.4855 1.70016 10.2002 1.70016ZM6.93351 3.57349C6.94515 2.93086 7.1461 2.30594 7.51121 1.77697C7.87633 1.24801 8.38938 0.838504 8.98612 0.599736C9.58286 0.360967 10.2368 0.303544 10.866 0.434656C11.4952 0.565768 12.0718 0.879588 12.5235 1.33682C12.9975 1.33349 13.4008 1.45349 14.3028 0.906824C14.0795 2.00016 13.9695 2.47482 13.4935 3.12749C13.4935 8.22216 10.3622 10.6995 7.18484 11.3335C5.00618 11.7682 1.83818 11.0542 0.930176 10.1062C1.39284 10.0702 3.27284 9.86816 4.35951 9.07282C3.44018 8.46682 -0.219157 6.31349 2.18551 0.524158C3.31418 1.84216 4.45884 2.73949 5.61884 3.21549C6.39084 3.53216 6.58018 3.52549 6.93418 3.57416L6.93351 3.57349Z" fill="#6F8394"/>
</svg>
