<svg width="14" height="12" viewBox="0 0 14 12" fill="none" xmlns="http://www.w3.org/2000/svg">
<path d="M12.0706 2.66341C12.0199 2.46475 11.8759 2.31475 11.7113 2.26875C11.4199 2.18675 9.99992 2.00008 6.99992 2.00008C3.99992 2.00008 2.58125 2.18675 2.28725 2.26875C2.12459 2.31408 1.98059 2.46408 1.92925 2.66341C1.85659 2.94608 1.66659 4.13075 1.66659 6.00008C1.66659 7.86941 1.85659 9.05341 1.92925 9.33741C1.97992 9.53541 2.12392 9.68541 2.28792 9.73075C2.58125 9.81341 3.99992 10.0001 6.99992 10.0001C9.99992 10.0001 11.4193 9.81341 11.7126 9.73141C11.8753 9.68608 12.0193 9.53608 12.0706 9.33675C12.1433 9.05408 12.3333 7.86675 12.3333 6.00008C12.3333 4.13341 12.1433 2.94675 12.0706 2.66341ZM13.3619 2.33208C13.6666 3.52008 13.6666 6.00008 13.6666 6.00008C13.6666 6.00008 13.6666 8.48008 13.3619 9.66808C13.1926 10.3247 12.6973 10.8414 12.0699 11.0161C10.9306 11.3334 6.99992 11.3334 6.99992 11.3334C6.99992 11.3334 3.07125 11.3334 1.92992 11.0161C1.29992 10.8387 0.805252 10.3227 0.637919 9.66808C0.333252 8.48008 0.333252 6.00008 0.333252 6.00008C0.333252 6.00008 0.333252 3.52008 0.637919 2.33208C0.807252 1.67541 1.30259 1.15875 1.92992 0.984081C3.07125 0.666748 6.99992 0.666748 6.99992 0.666748C6.99992 0.666748 10.9306 0.666748 12.0699 0.984081C12.6999 1.16141 13.1946 1.67741 13.3619 2.33208ZM5.66659 8.33341V3.66675L9.66659 6.00008L5.66659 8.33341Z" fill="#6F8394"/>
</svg>
